<mxfile host="Electron" modified="2024-07-22T07:42:58.279Z" agent="Mozilla/5.0 (Windows NT 10.0; Win64; x64) AppleWebKit/537.36 (KHTML, like Gecko) draw.io/22.0.3 Chrome/114.0.5735.289 Electron/25.8.4 Safari/537.36" etag="FiOnpIIYnNBpxAGHUx5d" version="22.0.3" type="device">
  <diagram name="Page 1" id="Page-1">
    <mxGraphModel dx="361" dy="309" grid="1" gridSize="10" guides="1" tooltips="1" connect="1" arrows="1" fold="1" page="1" pageScale="1" pageWidth="819" pageHeight="300" math="0" shadow="0">
      <root>
        <mxCell id="0" />
        <mxCell id="1" parent="0" />
        <mxCell id="PPOAraZDvmBpzZdARjmW-154" value="" style="shape=note;size=9;whiteSpace=wrap;html=1;fillColor=none;dashed=1;dashPattern=1 1;fontSize=10;fontFamily=Lucida Console;" vertex="1" parent="1">
          <mxGeometry width="250" height="190" as="geometry" />
        </mxCell>
        <mxCell id="PPOAraZDvmBpzZdARjmW-23" value="L" style="rounded=0;whiteSpace=wrap;html=1;gradientColor=none;fillColor=none;strokeColor=#CCCCCC;fontSize=10;fontFamily=Lucida Console;strokeWidth=0.5;" vertex="1" parent="1">
          <mxGeometry x="10" y="11" width="10" height="20" as="geometry" />
        </mxCell>
        <mxCell id="PPOAraZDvmBpzZdARjmW-24" value="o" style="rounded=0;whiteSpace=wrap;html=1;gradientColor=none;fillColor=none;strokeColor=#CCCCCC;fontSize=10;fontFamily=Lucida Console;strokeWidth=0.5;" vertex="1" parent="1">
          <mxGeometry x="20" y="11" width="10" height="20" as="geometry" />
        </mxCell>
        <mxCell id="PPOAraZDvmBpzZdARjmW-25" value="r" style="rounded=0;whiteSpace=wrap;html=1;gradientColor=none;fillColor=none;strokeColor=#CCCCCC;fontSize=10;fontFamily=Lucida Console;strokeWidth=0.5;" vertex="1" parent="1">
          <mxGeometry x="30" y="11" width="10" height="20" as="geometry" />
        </mxCell>
        <mxCell id="PPOAraZDvmBpzZdARjmW-26" value="e" style="rounded=0;whiteSpace=wrap;html=1;gradientColor=none;fillColor=none;strokeColor=#CCCCCC;fontSize=10;fontFamily=Lucida Console;strokeWidth=0.5;" vertex="1" parent="1">
          <mxGeometry x="40" y="11" width="10" height="20" as="geometry" />
        </mxCell>
        <mxCell id="PPOAraZDvmBpzZdARjmW-27" value="m" style="rounded=0;whiteSpace=wrap;html=1;gradientColor=none;fillColor=none;strokeColor=#CCCCCC;fontSize=10;fontFamily=Lucida Console;strokeWidth=0.5;" vertex="1" parent="1">
          <mxGeometry x="50" y="11" width="10" height="20" as="geometry" />
        </mxCell>
        <mxCell id="PPOAraZDvmBpzZdARjmW-28" value="&amp;nbsp;" style="rounded=0;whiteSpace=wrap;html=1;gradientColor=none;fillColor=none;strokeColor=#CCCCCC;fontSize=10;fontFamily=Lucida Console;strokeWidth=0.5;" vertex="1" parent="1">
          <mxGeometry x="60" y="11" width="10" height="20" as="geometry" />
        </mxCell>
        <mxCell id="PPOAraZDvmBpzZdARjmW-29" value="i" style="rounded=0;whiteSpace=wrap;html=1;gradientColor=none;fillColor=none;strokeColor=#CCCCCC;fontSize=10;fontFamily=Lucida Console;strokeWidth=0.5;" vertex="1" parent="1">
          <mxGeometry x="70" y="11" width="10" height="20" as="geometry" />
        </mxCell>
        <mxCell id="PPOAraZDvmBpzZdARjmW-30" value="p" style="rounded=0;whiteSpace=wrap;html=1;gradientColor=none;fillColor=none;strokeColor=#CCCCCC;fontSize=10;fontFamily=Lucida Console;strokeWidth=0.5;" vertex="1" parent="1">
          <mxGeometry x="80" y="11" width="10" height="20" as="geometry" />
        </mxCell>
        <mxCell id="PPOAraZDvmBpzZdARjmW-31" value="s" style="rounded=0;whiteSpace=wrap;html=1;gradientColor=none;fillColor=none;strokeColor=#CCCCCC;fontSize=10;fontFamily=Lucida Console;strokeWidth=0.5;" vertex="1" parent="1">
          <mxGeometry x="90" y="11" width="10" height="20" as="geometry" />
        </mxCell>
        <mxCell id="PPOAraZDvmBpzZdARjmW-32" value="u" style="rounded=0;whiteSpace=wrap;html=1;gradientColor=none;fillColor=none;strokeColor=#CCCCCC;fontSize=10;fontFamily=Lucida Console;strokeWidth=0.5;" vertex="1" parent="1">
          <mxGeometry x="100" y="11" width="10" height="20" as="geometry" />
        </mxCell>
        <mxCell id="PPOAraZDvmBpzZdARjmW-33" value="m" style="rounded=0;whiteSpace=wrap;html=1;gradientColor=none;fillColor=none;strokeColor=#CCCCCC;fontSize=10;fontFamily=Lucida Console;strokeWidth=0.5;" vertex="1" parent="1">
          <mxGeometry x="110" y="11" width="10" height="20" as="geometry" />
        </mxCell>
        <mxCell id="PPOAraZDvmBpzZdARjmW-34" value="&amp;nbsp;" style="rounded=0;whiteSpace=wrap;html=1;gradientColor=none;fillColor=none;strokeColor=#CCCCCC;fontSize=10;fontFamily=Lucida Console;strokeWidth=0.5;" vertex="1" parent="1">
          <mxGeometry x="120" y="11" width="10" height="20" as="geometry" />
        </mxCell>
        <mxCell id="PPOAraZDvmBpzZdARjmW-35" value="d" style="rounded=0;whiteSpace=wrap;html=1;gradientColor=none;fillColor=none;strokeColor=#CCCCCC;fontSize=10;fontFamily=Lucida Console;strokeWidth=0.5;" vertex="1" parent="1">
          <mxGeometry x="130" y="11" width="10" height="20" as="geometry" />
        </mxCell>
        <mxCell id="PPOAraZDvmBpzZdARjmW-36" value="o" style="rounded=0;whiteSpace=wrap;html=1;gradientColor=none;fillColor=none;strokeColor=#CCCCCC;fontSize=10;fontFamily=Lucida Console;strokeWidth=0.5;" vertex="1" parent="1">
          <mxGeometry x="140" y="11" width="10" height="20" as="geometry" />
        </mxCell>
        <mxCell id="PPOAraZDvmBpzZdARjmW-37" value="l" style="rounded=0;whiteSpace=wrap;html=1;gradientColor=none;fillColor=none;strokeColor=#CCCCCC;fontSize=10;fontFamily=Lucida Console;strokeWidth=0.5;" vertex="1" parent="1">
          <mxGeometry x="150" y="11" width="10" height="20" as="geometry" />
        </mxCell>
        <mxCell id="PPOAraZDvmBpzZdARjmW-38" value="o" style="rounded=0;whiteSpace=wrap;html=1;gradientColor=none;fillColor=none;strokeColor=#CCCCCC;fontSize=10;fontFamily=Lucida Console;strokeWidth=0.5;" vertex="1" parent="1">
          <mxGeometry x="160" y="11" width="10" height="20" as="geometry" />
        </mxCell>
        <mxCell id="PPOAraZDvmBpzZdARjmW-39" value="r" style="rounded=0;whiteSpace=wrap;html=1;gradientColor=none;fillColor=none;strokeColor=#CCCCCC;fontSize=10;fontFamily=Lucida Console;strokeWidth=0.5;" vertex="1" parent="1">
          <mxGeometry x="170" y="11" width="10" height="20" as="geometry" />
        </mxCell>
        <mxCell id="PPOAraZDvmBpzZdARjmW-40" value="&amp;nbsp;" style="rounded=0;whiteSpace=wrap;html=1;gradientColor=none;fillColor=none;strokeColor=#CCCCCC;fontSize=10;fontFamily=Lucida Console;strokeWidth=0.5;" vertex="1" parent="1">
          <mxGeometry x="180" y="11" width="10" height="20" as="geometry" />
        </mxCell>
        <mxCell id="PPOAraZDvmBpzZdARjmW-41" value="s" style="rounded=0;whiteSpace=wrap;html=1;gradientColor=none;fillColor=none;strokeColor=#CCCCCC;fontSize=10;fontFamily=Lucida Console;strokeWidth=0.5;" vertex="1" parent="1">
          <mxGeometry x="190" y="11" width="10" height="20" as="geometry" />
        </mxCell>
        <mxCell id="PPOAraZDvmBpzZdARjmW-42" value="i" style="rounded=0;whiteSpace=wrap;html=1;gradientColor=none;fillColor=none;strokeColor=#CCCCCC;fontSize=10;fontFamily=Lucida Console;strokeWidth=0.5;" vertex="1" parent="1">
          <mxGeometry x="200" y="11" width="10" height="20" as="geometry" />
        </mxCell>
        <mxCell id="PPOAraZDvmBpzZdARjmW-43" value="t" style="rounded=0;whiteSpace=wrap;html=1;gradientColor=none;fillColor=none;strokeColor=#CCCCCC;fontSize=10;fontFamily=Lucida Console;strokeWidth=0.5;" vertex="1" parent="1">
          <mxGeometry x="210" y="11" width="10" height="20" as="geometry" />
        </mxCell>
        <mxCell id="PPOAraZDvmBpzZdARjmW-44" value="\r" style="rounded=0;whiteSpace=wrap;html=1;fillColor=#d5e8d4;strokeColor=#CCCCCC;fontSize=7;fontFamily=Lucida Console;strokeWidth=0.5;" vertex="1" parent="1">
          <mxGeometry x="220" y="11" width="10" height="20" as="geometry" />
        </mxCell>
        <mxCell id="PPOAraZDvmBpzZdARjmW-53" value="a" style="rounded=0;whiteSpace=wrap;html=1;gradientColor=none;fillColor=none;strokeColor=#CCCCCC;fontSize=10;fontFamily=Lucida Console;strokeWidth=0.5;" vertex="1" parent="1">
          <mxGeometry x="10" y="31" width="10" height="20" as="geometry" />
        </mxCell>
        <mxCell id="PPOAraZDvmBpzZdARjmW-54" value="m" style="rounded=0;whiteSpace=wrap;html=1;gradientColor=none;fillColor=none;strokeColor=#CCCCCC;fontSize=10;fontFamily=Lucida Console;strokeWidth=0.5;" vertex="1" parent="1">
          <mxGeometry x="20" y="31" width="10" height="20" as="geometry" />
        </mxCell>
        <mxCell id="PPOAraZDvmBpzZdARjmW-55" value="e" style="rounded=0;whiteSpace=wrap;html=1;gradientColor=none;fillColor=none;strokeColor=#CCCCCC;fontSize=10;fontFamily=Lucida Console;strokeWidth=0.5;" vertex="1" parent="1">
          <mxGeometry x="30" y="31" width="10" height="20" as="geometry" />
        </mxCell>
        <mxCell id="PPOAraZDvmBpzZdARjmW-56" value="t" style="rounded=0;whiteSpace=wrap;html=1;gradientColor=none;fillColor=none;strokeColor=#CCCCCC;fontSize=10;fontFamily=Lucida Console;strokeWidth=0.5;" vertex="1" parent="1">
          <mxGeometry x="40" y="31" width="10" height="20" as="geometry" />
        </mxCell>
        <mxCell id="PPOAraZDvmBpzZdARjmW-57" value="," style="rounded=0;whiteSpace=wrap;html=1;gradientColor=none;fillColor=none;strokeColor=#CCCCCC;fontSize=10;fontFamily=Lucida Console;strokeWidth=0.5;" vertex="1" parent="1">
          <mxGeometry x="50" y="31" width="10" height="20" as="geometry" />
        </mxCell>
        <mxCell id="PPOAraZDvmBpzZdARjmW-58" value="&amp;nbsp;" style="rounded=0;whiteSpace=wrap;html=1;gradientColor=none;fillColor=none;strokeColor=#CCCCCC;fontSize=10;fontFamily=Lucida Console;strokeWidth=0.5;" vertex="1" parent="1">
          <mxGeometry x="60" y="31" width="10" height="20" as="geometry" />
        </mxCell>
        <mxCell id="PPOAraZDvmBpzZdARjmW-59" value="c" style="rounded=0;whiteSpace=wrap;html=1;gradientColor=none;fillColor=none;strokeColor=#CCCCCC;fontSize=10;fontFamily=Lucida Console;strokeWidth=0.5;" vertex="1" parent="1">
          <mxGeometry x="70" y="31" width="10" height="20" as="geometry" />
        </mxCell>
        <mxCell id="PPOAraZDvmBpzZdARjmW-60" value="o" style="rounded=0;whiteSpace=wrap;html=1;gradientColor=none;fillColor=none;strokeColor=#CCCCCC;fontSize=10;fontFamily=Lucida Console;strokeWidth=0.5;" vertex="1" parent="1">
          <mxGeometry x="80" y="31" width="10" height="20" as="geometry" />
        </mxCell>
        <mxCell id="PPOAraZDvmBpzZdARjmW-61" value="n" style="rounded=0;whiteSpace=wrap;html=1;gradientColor=none;fillColor=none;strokeColor=#CCCCCC;fontSize=10;fontFamily=Lucida Console;strokeWidth=0.5;" vertex="1" parent="1">
          <mxGeometry x="90" y="31" width="10" height="20" as="geometry" />
        </mxCell>
        <mxCell id="PPOAraZDvmBpzZdARjmW-62" value="s" style="rounded=0;whiteSpace=wrap;html=1;gradientColor=none;fillColor=none;strokeColor=#CCCCCC;fontSize=10;fontFamily=Lucida Console;strokeWidth=0.5;" vertex="1" parent="1">
          <mxGeometry x="100" y="31" width="10" height="20" as="geometry" />
        </mxCell>
        <mxCell id="PPOAraZDvmBpzZdARjmW-63" value="e" style="rounded=0;whiteSpace=wrap;html=1;gradientColor=none;fillColor=none;strokeColor=#CCCCCC;fontSize=10;fontFamily=Lucida Console;strokeWidth=0.5;" vertex="1" parent="1">
          <mxGeometry x="110" y="31" width="10" height="20" as="geometry" />
        </mxCell>
        <mxCell id="PPOAraZDvmBpzZdARjmW-64" value="c" style="rounded=0;whiteSpace=wrap;html=1;gradientColor=none;fillColor=none;strokeColor=#CCCCCC;fontSize=10;fontFamily=Lucida Console;strokeWidth=0.5;" vertex="1" parent="1">
          <mxGeometry x="120" y="31" width="10" height="20" as="geometry" />
        </mxCell>
        <mxCell id="PPOAraZDvmBpzZdARjmW-65" value="t" style="rounded=0;whiteSpace=wrap;html=1;gradientColor=none;fillColor=none;strokeColor=#CCCCCC;fontSize=10;fontFamily=Lucida Console;strokeWidth=0.5;" vertex="1" parent="1">
          <mxGeometry x="130" y="31" width="10" height="20" as="geometry" />
        </mxCell>
        <mxCell id="PPOAraZDvmBpzZdARjmW-66" value="e" style="rounded=0;whiteSpace=wrap;html=1;gradientColor=none;fillColor=none;strokeColor=#CCCCCC;fontSize=10;fontFamily=Lucida Console;strokeWidth=0.5;" vertex="1" parent="1">
          <mxGeometry x="140" y="31" width="10" height="20" as="geometry" />
        </mxCell>
        <mxCell id="PPOAraZDvmBpzZdARjmW-67" value="t" style="rounded=0;whiteSpace=wrap;html=1;gradientColor=none;fillColor=none;strokeColor=#CCCCCC;fontSize=10;fontFamily=Lucida Console;strokeWidth=0.5;" vertex="1" parent="1">
          <mxGeometry x="150" y="31" width="10" height="20" as="geometry" />
        </mxCell>
        <mxCell id="PPOAraZDvmBpzZdARjmW-68" value="u" style="rounded=0;whiteSpace=wrap;html=1;gradientColor=none;fillColor=none;strokeColor=#CCCCCC;fontSize=10;fontFamily=Lucida Console;strokeWidth=0.5;" vertex="1" parent="1">
          <mxGeometry x="160" y="31" width="10" height="20" as="geometry" />
        </mxCell>
        <mxCell id="PPOAraZDvmBpzZdARjmW-69" value="r" style="rounded=0;whiteSpace=wrap;html=1;gradientColor=none;fillColor=none;strokeColor=#CCCCCC;fontSize=10;fontFamily=Lucida Console;strokeWidth=0.5;" vertex="1" parent="1">
          <mxGeometry x="170" y="31" width="10" height="20" as="geometry" />
        </mxCell>
        <mxCell id="PPOAraZDvmBpzZdARjmW-75" value="\r" style="rounded=0;whiteSpace=wrap;html=1;fillColor=#d5e8d4;strokeColor=#CCCCCC;fontSize=7;fontFamily=Lucida Console;strokeWidth=0.5;" vertex="1" parent="1">
          <mxGeometry x="180" y="31" width="10" height="20" as="geometry" />
        </mxCell>
        <mxCell id="PPOAraZDvmBpzZdARjmW-76" value="a" style="rounded=0;whiteSpace=wrap;html=1;gradientColor=none;fillColor=none;strokeColor=#CCCCCC;fontSize=10;fontFamily=Lucida Console;strokeWidth=0.5;" vertex="1" parent="1">
          <mxGeometry x="10" y="51" width="10" height="20" as="geometry" />
        </mxCell>
        <mxCell id="PPOAraZDvmBpzZdARjmW-77" value="d" style="rounded=0;whiteSpace=wrap;html=1;gradientColor=none;fillColor=none;strokeColor=#CCCCCC;fontSize=10;fontFamily=Lucida Console;strokeWidth=0.5;" vertex="1" parent="1">
          <mxGeometry x="20" y="51" width="10" height="20" as="geometry" />
        </mxCell>
        <mxCell id="PPOAraZDvmBpzZdARjmW-78" value="i" style="rounded=0;whiteSpace=wrap;html=1;gradientColor=none;fillColor=none;strokeColor=#CCCCCC;fontSize=10;fontFamily=Lucida Console;strokeWidth=0.5;" vertex="1" parent="1">
          <mxGeometry x="30" y="51" width="10" height="20" as="geometry" />
        </mxCell>
        <mxCell id="PPOAraZDvmBpzZdARjmW-79" value="p" style="rounded=0;whiteSpace=wrap;html=1;gradientColor=none;fillColor=none;strokeColor=#CCCCCC;fontSize=10;fontFamily=Lucida Console;strokeWidth=0.5;" vertex="1" parent="1">
          <mxGeometry x="40" y="51" width="10" height="20" as="geometry" />
        </mxCell>
        <mxCell id="PPOAraZDvmBpzZdARjmW-80" value="i" style="rounded=0;whiteSpace=wrap;html=1;gradientColor=none;fillColor=none;strokeColor=#CCCCCC;fontSize=10;fontFamily=Lucida Console;strokeWidth=0.5;" vertex="1" parent="1">
          <mxGeometry x="50" y="51" width="10" height="20" as="geometry" />
        </mxCell>
        <mxCell id="PPOAraZDvmBpzZdARjmW-81" value="s" style="rounded=0;whiteSpace=wrap;html=1;gradientColor=none;fillColor=none;strokeColor=#CCCCCC;fontSize=10;fontFamily=Lucida Console;strokeWidth=0.5;" vertex="1" parent="1">
          <mxGeometry x="60" y="51" width="10" height="20" as="geometry" />
        </mxCell>
        <mxCell id="PPOAraZDvmBpzZdARjmW-82" value="c" style="rounded=0;whiteSpace=wrap;html=1;gradientColor=none;fillColor=none;strokeColor=#CCCCCC;fontSize=10;fontFamily=Lucida Console;strokeWidth=0.5;" vertex="1" parent="1">
          <mxGeometry x="70" y="51" width="10" height="20" as="geometry" />
        </mxCell>
        <mxCell id="PPOAraZDvmBpzZdARjmW-83" value="i" style="rounded=0;whiteSpace=wrap;html=1;gradientColor=none;fillColor=none;strokeColor=#CCCCCC;fontSize=10;fontFamily=Lucida Console;strokeWidth=0.5;" vertex="1" parent="1">
          <mxGeometry x="80" y="51" width="10" height="20" as="geometry" />
        </mxCell>
        <mxCell id="PPOAraZDvmBpzZdARjmW-84" value="n" style="rounded=0;whiteSpace=wrap;html=1;gradientColor=none;fillColor=none;strokeColor=#CCCCCC;fontSize=10;fontFamily=Lucida Console;strokeWidth=0.5;" vertex="1" parent="1">
          <mxGeometry x="90" y="51" width="10" height="20" as="geometry" />
        </mxCell>
        <mxCell id="PPOAraZDvmBpzZdARjmW-85" value="g" style="rounded=0;whiteSpace=wrap;html=1;gradientColor=none;fillColor=none;strokeColor=#CCCCCC;fontSize=10;fontFamily=Lucida Console;strokeWidth=0.5;" vertex="1" parent="1">
          <mxGeometry x="100" y="51" width="10" height="20" as="geometry" />
        </mxCell>
        <mxCell id="PPOAraZDvmBpzZdARjmW-86" value="&amp;nbsp;" style="rounded=0;whiteSpace=wrap;html=1;gradientColor=none;fillColor=none;strokeColor=#CCCCCC;fontSize=10;fontFamily=Lucida Console;strokeWidth=0.5;" vertex="1" parent="1">
          <mxGeometry x="110" y="51" width="10" height="20" as="geometry" />
        </mxCell>
        <mxCell id="PPOAraZDvmBpzZdARjmW-87" value="e" style="rounded=0;whiteSpace=wrap;html=1;gradientColor=none;fillColor=none;strokeColor=#CCCCCC;fontSize=10;fontFamily=Lucida Console;strokeWidth=0.5;" vertex="1" parent="1">
          <mxGeometry x="120" y="51" width="10" height="20" as="geometry" />
        </mxCell>
        <mxCell id="PPOAraZDvmBpzZdARjmW-88" value="l" style="rounded=0;whiteSpace=wrap;html=1;gradientColor=none;fillColor=none;strokeColor=#CCCCCC;fontSize=10;fontFamily=Lucida Console;strokeWidth=0.5;" vertex="1" parent="1">
          <mxGeometry x="130" y="51" width="10" height="20" as="geometry" />
        </mxCell>
        <mxCell id="PPOAraZDvmBpzZdARjmW-89" value="i" style="rounded=0;whiteSpace=wrap;html=1;gradientColor=none;fillColor=none;strokeColor=#CCCCCC;fontSize=10;fontFamily=Lucida Console;strokeWidth=0.5;" vertex="1" parent="1">
          <mxGeometry x="140" y="51" width="10" height="20" as="geometry" />
        </mxCell>
        <mxCell id="PPOAraZDvmBpzZdARjmW-90" value="t" style="rounded=0;whiteSpace=wrap;html=1;gradientColor=none;fillColor=none;strokeColor=#CCCCCC;fontSize=10;fontFamily=Lucida Console;strokeWidth=0.5;" vertex="1" parent="1">
          <mxGeometry x="150" y="51" width="10" height="20" as="geometry" />
        </mxCell>
        <mxCell id="PPOAraZDvmBpzZdARjmW-91" value="," style="rounded=0;whiteSpace=wrap;html=1;gradientColor=none;fillColor=none;strokeColor=#CCCCCC;fontSize=10;fontFamily=Lucida Console;strokeWidth=0.5;" vertex="1" parent="1">
          <mxGeometry x="160" y="51" width="10" height="20" as="geometry" />
        </mxCell>
        <mxCell id="PPOAraZDvmBpzZdARjmW-93" value="\v" style="rounded=0;whiteSpace=wrap;html=1;fillColor=#d5e8d4;strokeColor=#CCCCCC;fontSize=7;fontFamily=Lucida Console;strokeWidth=0.5;" vertex="1" parent="1">
          <mxGeometry x="180" y="51" width="10" height="20" as="geometry" />
        </mxCell>
        <UserObject label="" tags="Background" id="PPOAraZDvmBpzZdARjmW-94">
          <mxCell style="vsdxID=21;edgeStyle=none;startArrow=none;endArrow=block;startSize=5;endSize=5;strokeColor=#000000;spacingTop=0;spacingBottom=0;spacingLeft=0;spacingRight=0;verticalAlign=middle;html=1;labelBackgroundColor=#ffffff;rounded=0;exitX=0.5;exitY=1;exitDx=0;exitDy=0;fontSize=10;fontFamily=Lucida Console;" edge="1" parent="1" source="PPOAraZDvmBpzZdARjmW-93" target="PPOAraZDvmBpzZdARjmW-111">
            <mxGeometry relative="1" as="geometry">
              <Array as="points" />
              <mxPoint x="184.8" y="80" as="sourcePoint" />
              <mxPoint x="185" y="101" as="targetPoint" />
            </mxGeometry>
          </mxCell>
        </UserObject>
        <mxCell id="PPOAraZDvmBpzZdARjmW-111" value="d" style="rounded=0;whiteSpace=wrap;html=1;gradientColor=none;fillColor=none;strokeColor=#CCCCCC;fontSize=10;fontFamily=Lucida Console;strokeWidth=0.5;" vertex="1" parent="1">
          <mxGeometry x="180" y="111" width="10" height="20" as="geometry" />
        </mxCell>
        <mxCell id="PPOAraZDvmBpzZdARjmW-112" value="o" style="rounded=0;whiteSpace=wrap;html=1;gradientColor=none;fillColor=none;strokeColor=#CCCCCC;fontSize=10;fontFamily=Lucida Console;strokeWidth=0.5;" vertex="1" parent="1">
          <mxGeometry x="190" y="111" width="10" height="20" as="geometry" />
        </mxCell>
        <mxCell id="PPOAraZDvmBpzZdARjmW-124" style="edgeStyle=orthogonalEdgeStyle;rounded=1;orthogonalLoop=1;jettySize=auto;html=1;exitX=0.5;exitY=1;exitDx=0;exitDy=0;entryX=0.5;entryY=0;entryDx=0;entryDy=0;fontSize=10;fontFamily=Lucida Console;" edge="1" parent="1" source="PPOAraZDvmBpzZdARjmW-116" target="PPOAraZDvmBpzZdARjmW-120">
          <mxGeometry relative="1" as="geometry">
            <Array as="points">
              <mxPoint x="205" y="140" />
              <mxPoint x="160" y="140" />
              <mxPoint x="160" y="85" />
              <mxPoint x="15" y="85" />
            </Array>
          </mxGeometry>
        </mxCell>
        <mxCell id="PPOAraZDvmBpzZdARjmW-116" value="\r" style="rounded=0;whiteSpace=wrap;html=1;fillColor=#d5e8d4;strokeColor=#CCCCCC;fontSize=7;fontFamily=Lucida Console;strokeWidth=0.5;" vertex="1" parent="1">
          <mxGeometry x="200" y="111" width="10" height="20" as="geometry" />
        </mxCell>
        <mxCell id="PPOAraZDvmBpzZdARjmW-117" value="&amp;nbsp;" style="rounded=0;whiteSpace=wrap;html=1;gradientColor=none;fillColor=none;strokeColor=#CCCCCC;fontSize=10;fontFamily=Lucida Console;strokeWidth=0.5;" vertex="1" parent="1">
          <mxGeometry x="170" y="51" width="10" height="20" as="geometry" />
        </mxCell>
        <mxCell id="PPOAraZDvmBpzZdARjmW-118" value="\n" style="rounded=0;whiteSpace=wrap;html=1;fillColor=#d5e8d4;strokeColor=#CCCCCC;fontSize=7;fontFamily=Lucida Console;strokeWidth=0.5;" vertex="1" parent="1">
          <mxGeometry x="230" y="11" width="10" height="20" as="geometry" />
        </mxCell>
        <mxCell id="PPOAraZDvmBpzZdARjmW-119" value="\n" style="rounded=0;whiteSpace=wrap;html=1;fillColor=#d5e8d4;strokeColor=#CCCCCC;fontSize=7;fontFamily=Lucida Console;strokeWidth=0.5;" vertex="1" parent="1">
          <mxGeometry x="190" y="31" width="10" height="20" as="geometry" />
        </mxCell>
        <mxCell id="PPOAraZDvmBpzZdARjmW-120" value="e" style="rounded=0;whiteSpace=wrap;html=1;gradientColor=none;fillColor=none;strokeColor=#CCCCCC;fontSize=10;fontFamily=Lucida Console;strokeWidth=0.5;" vertex="1" parent="1">
          <mxGeometry x="10" y="111" width="10" height="20" as="geometry" />
        </mxCell>
        <mxCell id="PPOAraZDvmBpzZdARjmW-121" value="l" style="rounded=0;whiteSpace=wrap;html=1;gradientColor=none;fillColor=none;strokeColor=#CCCCCC;fontSize=10;fontFamily=Lucida Console;strokeWidth=0.5;" vertex="1" parent="1">
          <mxGeometry x="20" y="111" width="10" height="20" as="geometry" />
        </mxCell>
        <mxCell id="PPOAraZDvmBpzZdARjmW-122" value="i" style="rounded=0;whiteSpace=wrap;html=1;gradientColor=none;fillColor=none;strokeColor=#CCCCCC;fontSize=10;fontFamily=Lucida Console;strokeWidth=0.5;" vertex="1" parent="1">
          <mxGeometry x="30" y="111" width="10" height="20" as="geometry" />
        </mxCell>
        <mxCell id="PPOAraZDvmBpzZdARjmW-123" value="t" style="rounded=0;whiteSpace=wrap;html=1;gradientColor=none;fillColor=none;strokeColor=#CCCCCC;fontSize=10;fontFamily=Lucida Console;strokeWidth=0.5;" vertex="1" parent="1">
          <mxGeometry x="40" y="111" width="10" height="20" as="geometry" />
        </mxCell>
        <mxCell id="PPOAraZDvmBpzZdARjmW-126" value="\n" style="rounded=0;whiteSpace=wrap;html=1;fillColor=#d5e8d4;strokeColor=#CCCCCC;fontSize=7;fontFamily=Lucida Console;strokeWidth=0.5;" vertex="1" parent="1">
          <mxGeometry x="60" y="111" width="10" height="20" as="geometry" />
        </mxCell>
        <mxCell id="PPOAraZDvmBpzZdARjmW-129" value="." style="rounded=0;whiteSpace=wrap;html=1;gradientColor=none;fillColor=none;strokeColor=#CCCCCC;fontSize=10;fontFamily=Lucida Console;strokeWidth=0.5;" vertex="1" parent="1">
          <mxGeometry x="50" y="111" width="10" height="20" as="geometry" />
        </mxCell>
        <mxCell id="PPOAraZDvmBpzZdARjmW-130" value="&amp;nbsp;" style="rounded=0;whiteSpace=wrap;html=1;gradientColor=none;fillColor=none;strokeColor=#CCCCCC;fontSize=10;fontFamily=Lucida Console;strokeWidth=0.5;" vertex="1" parent="1">
          <mxGeometry x="60" y="131" width="10" height="20" as="geometry" />
        </mxCell>
        <mxCell id="PPOAraZDvmBpzZdARjmW-131" value="S" style="rounded=0;whiteSpace=wrap;html=1;gradientColor=none;fillColor=none;strokeColor=#CCCCCC;fontSize=10;fontFamily=Lucida Console;strokeWidth=0.5;" vertex="1" parent="1">
          <mxGeometry x="70" y="131" width="10" height="20" as="geometry" />
        </mxCell>
        <mxCell id="PPOAraZDvmBpzZdARjmW-132" value="i" style="rounded=0;whiteSpace=wrap;html=1;gradientColor=none;fillColor=none;strokeColor=#CCCCCC;fontSize=10;fontFamily=Lucida Console;strokeWidth=0.5;" vertex="1" parent="1">
          <mxGeometry x="80" y="131" width="10" height="20" as="geometry" />
        </mxCell>
        <mxCell id="PPOAraZDvmBpzZdARjmW-133" value="t" style="rounded=0;whiteSpace=wrap;html=1;gradientColor=none;fillColor=none;strokeColor=#CCCCCC;fontSize=10;fontFamily=Lucida Console;strokeWidth=0.5;" vertex="1" parent="1">
          <mxGeometry x="90" y="131" width="10" height="20" as="geometry" />
        </mxCell>
        <mxCell id="PPOAraZDvmBpzZdARjmW-134" value="\r" style="rounded=0;whiteSpace=wrap;html=1;fillColor=#d5e8d4;strokeColor=#CCCCCC;fontSize=7;fontFamily=Lucida Console;strokeWidth=0.5;" vertex="1" parent="1">
          <mxGeometry x="100" y="131" width="10" height="20" as="geometry" />
        </mxCell>
        <mxCell id="PPOAraZDvmBpzZdARjmW-135" value="\n" style="rounded=0;whiteSpace=wrap;html=1;fillColor=#d5e8d4;strokeColor=#CCCCCC;fontSize=7;fontFamily=Lucida Console;strokeWidth=0.5;" vertex="1" parent="1">
          <mxGeometry x="110" y="131" width="10" height="20" as="geometry" />
        </mxCell>
        <mxCell id="PPOAraZDvmBpzZdARjmW-136" value="d" style="rounded=0;whiteSpace=wrap;html=1;gradientColor=none;fillColor=none;strokeColor=#CCCCCC;fontSize=10;fontFamily=Lucida Console;strokeWidth=0.5;" vertex="1" parent="1">
          <mxGeometry x="10" y="151" width="10" height="20" as="geometry" />
        </mxCell>
        <mxCell id="PPOAraZDvmBpzZdARjmW-137" value="o" style="rounded=0;whiteSpace=wrap;html=1;gradientColor=none;fillColor=none;strokeColor=#CCCCCC;fontSize=10;fontFamily=Lucida Console;strokeWidth=0.5;" vertex="1" parent="1">
          <mxGeometry x="20" y="151" width="10" height="20" as="geometry" />
        </mxCell>
        <mxCell id="PPOAraZDvmBpzZdARjmW-143" value="e" style="rounded=0;whiteSpace=wrap;html=1;gradientColor=none;fillColor=none;strokeColor=#CCCCCC;fontSize=10;fontFamily=Lucida Console;strokeWidth=0.5;" vertex="1" parent="1">
          <mxGeometry x="80" y="151" width="10" height="20" as="geometry" />
        </mxCell>
        <mxCell id="PPOAraZDvmBpzZdARjmW-144" value="i" style="rounded=0;whiteSpace=wrap;html=1;gradientColor=none;fillColor=none;strokeColor=#CCCCCC;fontSize=10;fontFamily=Lucida Console;strokeWidth=0.5;" vertex="1" parent="1">
          <mxGeometry x="90" y="151" width="10" height="20" as="geometry" />
        </mxCell>
        <mxCell id="PPOAraZDvmBpzZdARjmW-145" value="s" style="rounded=0;whiteSpace=wrap;html=1;gradientColor=none;fillColor=none;strokeColor=#CCCCCC;fontSize=10;fontFamily=Lucida Console;strokeWidth=0.5;" vertex="1" parent="1">
          <mxGeometry x="100" y="151" width="10" height="20" as="geometry" />
        </mxCell>
        <mxCell id="PPOAraZDvmBpzZdARjmW-146" value="m" style="rounded=0;whiteSpace=wrap;html=1;gradientColor=none;fillColor=none;strokeColor=#CCCCCC;fontSize=10;fontFamily=Lucida Console;strokeWidth=0.5;" vertex="1" parent="1">
          <mxGeometry x="110" y="151" width="10" height="20" as="geometry" />
        </mxCell>
        <mxCell id="PPOAraZDvmBpzZdARjmW-147" value="." style="rounded=0;whiteSpace=wrap;html=1;gradientColor=none;fillColor=none;strokeColor=#CCCCCC;fontSize=10;fontFamily=Lucida Console;strokeWidth=0.5;" vertex="1" parent="1">
          <mxGeometry x="150" y="151" width="10" height="20" as="geometry" />
        </mxCell>
        <mxCell id="PPOAraZDvmBpzZdARjmW-148" value="d" style="rounded=0;whiteSpace=wrap;html=1;gradientColor=none;fillColor=none;strokeColor=#CCCCCC;fontSize=10;fontFamily=Lucida Console;strokeWidth=0.5;" vertex="1" parent="1">
          <mxGeometry x="130" y="151" width="10" height="20" as="geometry" />
        </mxCell>
        <mxCell id="PPOAraZDvmBpzZdARjmW-149" value="o" style="rounded=0;whiteSpace=wrap;html=1;gradientColor=none;fillColor=none;strokeColor=#CCCCCC;fontSize=10;fontFamily=Lucida Console;strokeWidth=0.5;" vertex="1" parent="1">
          <mxGeometry x="140" y="151" width="10" height="20" as="geometry" />
        </mxCell>
        <mxCell id="PPOAraZDvmBpzZdARjmW-150" value="\t" style="rounded=0;whiteSpace=wrap;html=1;fillColor=#d5e8d4;strokeColor=#CCCCCC;fontSize=7;fontFamily=Lucida Console;strokeWidth=0.5;" vertex="1" parent="1">
          <mxGeometry x="30" y="151" width="10" height="20" as="geometry" />
        </mxCell>
        <UserObject label="" tags="Background" id="PPOAraZDvmBpzZdARjmW-151">
          <mxCell style="vsdxID=21;edgeStyle=none;startArrow=none;endArrow=block;startSize=5;endSize=5;strokeColor=#000000;spacingTop=0;spacingBottom=0;spacingLeft=0;spacingRight=0;verticalAlign=middle;html=1;labelBackgroundColor=#ffffff;rounded=0;exitX=1;exitY=0.5;exitDx=0;exitDy=0;entryX=0;entryY=0.5;entryDx=0;entryDy=0;fontSize=10;fontFamily=Lucida Console;" edge="1" parent="1" source="PPOAraZDvmBpzZdARjmW-150" target="PPOAraZDvmBpzZdARjmW-143">
            <mxGeometry relative="1" as="geometry">
              <Array as="points" />
              <mxPoint x="44.80000000000001" y="171" as="sourcePoint" />
              <mxPoint x="44.80000000000001" y="211" as="targetPoint" />
            </mxGeometry>
          </mxCell>
        </UserObject>
        <mxCell id="PPOAraZDvmBpzZdARjmW-155" value="" style="shape=note;size=9;whiteSpace=wrap;html=1;fillColor=none;dashed=1;dashPattern=1 1;fontSize=10;fontFamily=Lucida Console;" vertex="1" parent="1">
          <mxGeometry y="199" width="250" height="51" as="geometry" />
        </mxCell>
        <mxCell id="PPOAraZDvmBpzZdARjmW-156" value="\f" style="rounded=0;whiteSpace=wrap;html=1;fillColor=#d5e8d4;strokeColor=#CCCCCC;fontSize=7;fontFamily=Lucida Console;strokeWidth=0.5;" vertex="1" parent="1">
          <mxGeometry x="160" y="151" width="10" height="20" as="geometry" />
        </mxCell>
        <mxCell id="PPOAraZDvmBpzZdARjmW-157" value="A" style="rounded=0;whiteSpace=wrap;html=1;gradientColor=none;fillColor=none;strokeColor=#CCCCCC;fontSize=10;fontFamily=Lucida Console;strokeWidth=0.5;" vertex="1" parent="1">
          <mxGeometry x="160" y="211" width="10" height="20" as="geometry" />
        </mxCell>
        <mxCell id="PPOAraZDvmBpzZdARjmW-158" value="l" style="rounded=0;whiteSpace=wrap;html=1;gradientColor=none;fillColor=none;strokeColor=#CCCCCC;fontSize=10;fontFamily=Lucida Console;strokeWidth=0.5;" vertex="1" parent="1">
          <mxGeometry x="170" y="211" width="10" height="20" as="geometry" />
        </mxCell>
        <mxCell id="PPOAraZDvmBpzZdARjmW-159" value="q" style="rounded=0;whiteSpace=wrap;html=1;gradientColor=none;fillColor=none;strokeColor=#CCCCCC;fontSize=10;fontFamily=Lucida Console;strokeWidth=0.5;" vertex="1" parent="1">
          <mxGeometry x="180" y="211" width="10" height="20" as="geometry" />
        </mxCell>
        <mxCell id="PPOAraZDvmBpzZdARjmW-160" value="u" style="rounded=0;whiteSpace=wrap;html=1;gradientColor=none;fillColor=none;strokeColor=#CCCCCC;fontSize=10;fontFamily=Lucida Console;strokeWidth=0.5;" vertex="1" parent="1">
          <mxGeometry x="190" y="211" width="10" height="20" as="geometry" />
        </mxCell>
        <mxCell id="PPOAraZDvmBpzZdARjmW-161" value="i" style="rounded=0;whiteSpace=wrap;html=1;gradientColor=none;fillColor=none;strokeColor=#CCCCCC;fontSize=10;fontFamily=Lucida Console;strokeWidth=0.5;" vertex="1" parent="1">
          <mxGeometry x="200" y="211" width="10" height="20" as="geometry" />
        </mxCell>
        <mxCell id="PPOAraZDvmBpzZdARjmW-162" value="p" style="rounded=0;whiteSpace=wrap;html=1;gradientColor=none;fillColor=none;strokeColor=#CCCCCC;fontSize=10;fontFamily=Lucida Console;strokeWidth=0.5;" vertex="1" parent="1">
          <mxGeometry x="210" y="211" width="10" height="20" as="geometry" />
        </mxCell>
        <UserObject label="" tags="Background" id="PPOAraZDvmBpzZdARjmW-164">
          <mxCell style="vsdxID=21;edgeStyle=none;startArrow=none;endArrow=block;startSize=5;endSize=5;strokeColor=#000000;spacingTop=0;spacingBottom=0;spacingLeft=0;spacingRight=0;verticalAlign=middle;html=1;labelBackgroundColor=#ffffff;rounded=0;exitX=0.5;exitY=1;exitDx=0;exitDy=0;fontSize=10;fontFamily=Lucida Console;" edge="1" parent="1">
            <mxGeometry relative="1" as="geometry">
              <Array as="points" />
              <mxPoint x="164.8" y="171" as="sourcePoint" />
              <mxPoint x="164.8" y="211" as="targetPoint" />
            </mxGeometry>
          </mxCell>
        </UserObject>
      </root>
    </mxGraphModel>
  </diagram>
</mxfile>
